<?xml version="1.0" encoding="UTF-8" standalone="no"?>
<!DOCTYPE svg PUBLIC "-//W3C//DTD SVG 1.1//EN" "http://www.w3.org/Graphics/SVG/1.1/DTD/svg11.dtd">
<svg width="814" height="829" viewBox="0 0 814 829" fill="none" xmlns="http://www.w3.org/2000/svg">
  <g filter="url(#filter0_di_0_1)">
    <rect x="4.66174" width="169.406" height="678" fill="#4F19E9"/>
    <path d="M343 233.062C343 326.467 267.333 402.125 174.067 402.125C131.358 402.125 109.667 386.145 95.1799 362.788C77.8272 334.81 68 290.467 68 233.062C68 173.578 77.924 129.527 95.0195 102.253C109.093 79.8001 130.512 64 174.067 64C267.333 64 343 139.658 343 233.062Z" stroke="#4F19E9" stroke-width="128"/>
  </g>
  <g filter="url(#filter1_di_0_1)">
    <rect x="809.338" y="821" width="169.406" height="678" transform="rotate(180 809.338 821)" fill="#EEE629"/>
    <path d="M471 587.938C471 494.533 546.667 418.875 639.933 418.875C682.642 418.875 704.333 434.855 718.82 458.212C736.173 486.19 746 530.533 746 587.938C746 647.422 736.076 691.473 718.98 718.747C704.907 741.2 683.488 757 639.933 757C546.667 757 471 681.342 471 587.938Z" stroke="#EEE629" stroke-width="128"/>
  </g>
  <defs>
    <filter id="filter0_di_0_1" x="0" y="0" width="422" height="693" filterUnits="userSpaceOnUse" color-interpolation-filters="sRGB">
      <feFlood flood-opacity="0" result="BackgroundImageFix"/>
      <feColorMatrix in="SourceAlpha" type="matrix" values="0 0 0 0 0 0 0 0 0 0 0 0 0 0 0 0 0 0 127 0" result="hardAlpha"/>
      <feOffset dy="4"/>
      <feGaussianBlur stdDeviation="2"/>
      <feComposite in2="hardAlpha" operator="out"/>
      <feColorMatrix type="matrix" values="0 0 0 0 0 0 0 0 0 0 0 0 0 0 0 0 0 0 0.25 0"/>
      <feBlend mode="normal" in2="BackgroundImageFix" result="effect1_dropShadow_0_1"/>
      <feBlend mode="normal" in="SourceGraphic" in2="effect1_dropShadow_0_1" result="shape"/>
      <feColorMatrix in="SourceAlpha" type="matrix" values="0 0 0 0 0 0 0 0 0 0 0 0 0 0 0 0 0 0 127 0" result="hardAlpha"/>
      <feOffset dx="28" dy="35"/>
      <feGaussianBlur stdDeviation="7.5"/>
      <feComposite in2="hardAlpha" operator="arithmetic" k2="-1" k3="1"/>
      <feColorMatrix type="matrix" values="0 0 0 0 0 0 0 0 0 0 0 0 0 0 0 0 0 0 0.32 0"/>
      <feBlend mode="normal" in2="shape" result="effect2_innerShadow_0_1"/>
    </filter>
    <filter id="filter1_di_0_1" x="403" y="143" width="422" height="693" filterUnits="userSpaceOnUse" color-interpolation-filters="sRGB">
      <feFlood flood-opacity="0" result="BackgroundImageFix"/>
      <feColorMatrix in="SourceAlpha" type="matrix" values="0 0 0 0 0 0 0 0 0 0 0 0 0 0 0 0 0 0 127 0" result="hardAlpha"/>
      <feOffset dy="4"/>
      <feGaussianBlur stdDeviation="2"/>
      <feComposite in2="hardAlpha" operator="out"/>
      <feColorMatrix type="matrix" values="0 0 0 0 0 0 0 0 0 0 0 0 0 0 0 0 0 0 0.25 0"/>
      <feBlend mode="normal" in2="BackgroundImageFix" result="effect1_dropShadow_0_1"/>
      <feBlend mode="normal" in="SourceGraphic" in2="effect1_dropShadow_0_1" result="shape"/>
      <feColorMatrix in="SourceAlpha" type="matrix" values="0 0 0 0 0 0 0 0 0 0 0 0 0 0 0 0 0 0 127 0" result="hardAlpha"/>
      <feOffset dx="28" dy="35"/>
      <feGaussianBlur stdDeviation="7.5"/>
      <feComposite in2="hardAlpha" operator="arithmetic" k2="-1" k3="1"/>
      <feColorMatrix type="matrix" values="0 0 0 0 0 0 0 0 0 0 0 0 0 0 0 0 0 0 0.32 0"/>
      <feBlend mode="normal" in2="shape" result="effect2_innerShadow_0_1"/>
    </filter>
  </defs>
</svg>
